<svg xmlns="http://www.w3.org/2000/svg" version="1.1" xmlns:xlink="http://www.w3.org/1999/xlink" xmlns:svgjs="http://svgjs.dev/svgjs" width="1000" height="1024" viewBox="0 0 1000 1024"><g transform="matrix(1,0,0,1,-0.7872278205887255,0.4153404610012785)"><svg viewBox="0 0 241 247" data-background-color="#ffffff" preserveAspectRatio="xMidYMid meet" height="1024" width="1000" xmlns="http://www.w3.org/2000/svg" xmlns:xlink="http://www.w3.org/1999/xlink"><g id="tight-bounds" transform="matrix(1,0,0,1,0.1897219047618819,-0.09997365579206985)"><svg viewBox="0 0 240.6205561904762 247.2" height="247.2" width="240.6205561904762"><g><svg viewBox="0 0 240.6205561904762 247.2" height="247.2" width="240.6205561904762"><g><svg viewBox="0 0 240.6205561904762 247.2" height="247.2" width="240.6205561904762"><g><svg viewBox="0 0 240.6205561904762 247.2" height="247.2" width="240.6205561904762" id="textblock"><g><svg viewBox="0 0 240.6205561904762 247.2" height="247.2" width="240.6205561904762"><path d="M240.057 53.02C238.926 27.36 235.702 20.227 235.702 20.227 225.804-6.202 213.451-0.506 202.354 3.292 182.761 3.446 163.248 9.091 143.701 12.119 102.672 12.581 61.292 4.986 20.467 23.717 16.632 29.464-3.978 24.846 0.682 56.304 1.904 69.39 6.361 83.913 6.225 95.922 6.836 98.026 7.684 93.202 8.046 96.23 9.313 104.39 11.383 100.541 13.08 105.365 10.716 118.246 12.413 128.971 14.03 140.21 11.18 143.135 7.526 141.749 5.886 151.449 5.716 158.479 4.8 157.145 3.793 156.837 3.058 156.632 1.576 157.402 1.825 159.608 2.673 167.152-0.969 171.514 1.316 178.904-0.257 186.91 2.402 193.838 2.04 202.511 1.994 204.255 2.243 205.744 2.639 206.154 4.392 208.361 1.836 212.672 2.107 217.342 20.094 249.262 39.607 227.195 58.034 241.872 62.819 231.608 59.222 245.516 61.134 243.36 62.627 240.846 63.713 251.263 65.399 245.362 65.659 243.668 65.263 239.665 66.19 240.435 66.677 240.846 67.107 240.743 67.175 238.382 67.276 234.841 66.383 237.048 66.145 235.201 68.713 225.861 68.08 248.081 70.489 247.158 70.376 244.438 69.675 240.538 71.111 241.051 72.536 237.151 72.582 233.918 73.849 242.693 73.894 244.592 74.12 245.926 74.482 246.85 78.441 237.305 82.378 250.237 86.53 245.926 89.075 241.205 91.518 248.492 94.097 246.696 95.002 245.259 95.919 242.693 96.79 247.004 107.457 247.928 118.826 244.079 128.939 247.158 155.963 241.41 184.843 249.518 213.338 241.923 220.057 238.998 227.037 234.841 233.587 231.506 233.587 231.506 238.892 222.371 238.892 181.316S240.023 145.393 240.193 112.703C240.363 80.013 241.154 78.679 240.023 53.02Z" opacity="1" fill="#636365" data-fill-palette-color="tertiary"></path><g transform="matrix(1,0,0,1,55.76832,26.230666666666668)"><svg width="129.0839161904762" viewBox="1 -35 23.200000762939453 35" height="194.73866666666666" data-palette-color="#ffffff"><path d="M14.5 0L10.8 0 10.8-31.65 1-31.65 1-35 24.2-35 24.2-31.65 14.5-31.65 14.5 0Z" opacity="1" transform="matrix(1,0,0,1,0,0)" fill="#ffffff" class="undefined-text-0" data-fill-palette-color="quaternary" id="text-0"></path></svg></g></svg></g></svg></g></svg></g><g></g></svg></g><defs></defs></svg><rect width="240.6205561904762" height="247.2" fill="none" stroke="none" visibility="hidden"></rect></g></svg></g></svg>